<?xml version="1.0" encoding="UTF-8" standalone="no"?>
<svg
   xmlns:dc="http://purl.org/dc/elements/1.1/"
   xmlns:cc="http://creativecommons.org/ns#"
   xmlns:rdf="http://www.w3.org/1999/02/22-rdf-syntax-ns#"
   xmlns:svg="http://www.w3.org/2000/svg"
   xmlns="http://www.w3.org/2000/svg"
   xmlns:sodipodi="http://sodipodi.sourceforge.net/DTD/sodipodi-0.dtd"
   xmlns:inkscape="http://www.inkscape.org/namespaces/inkscape"
   version="1.1"
   id="svg833"
   width="979.75244"
   height="979.77484"
   viewBox="0 0 979.75244 979.77484"
   sodipodi:docname="favicon.svg"
   inkscape:version="1.0.1 (3bc2e813f5, 2020-09-07)"
   inkscape:export-filename="C:\Users\ayush\Downloads\favicon.png"
   inkscape:export-xdpi="900"
   inkscape:export-ydpi="900">
  <metadata
     id="metadata839">
    <rdf:RDF>
      <cc:Work
         rdf:about="">
        <dc:format>image/svg+xml</dc:format>
        <dc:type
           rdf:resource="http://purl.org/dc/dcmitype/StillImage" />
        <dc:title />
      </cc:Work>
    </rdf:RDF>
  </metadata>
  <defs
     id="defs837" />
  <sodipodi:namedview
     pagecolor="#ffffff"
     bordercolor="#666666"
     borderopacity="1"
     objecttolerance="10"
     gridtolerance="10"
     guidetolerance="10"
     inkscape:pageopacity="0"
     inkscape:pageshadow="2"
     inkscape:window-width="2250"
     inkscape:window-height="1438"
     id="namedview835"
     showgrid="false"
     fit-margin-top="0"
     fit-margin-left="0"
     fit-margin-right="0"
     fit-margin-bottom="0"
     inkscape:zoom="0.74183673"
     inkscape:cx="485.8508"
     inkscape:cy="481.76602"
     inkscape:window-x="-6"
     inkscape:window-y="-6"
     inkscape:window-maximized="1"
     inkscape:current-layer="g841"
     inkscape:document-rotation="0" />
  <g
     inkscape:groupmode="layer"
     inkscape:label="Image"
     id="g841"
     transform="translate(-4.1491977,-8.2339811)">
    <path
       style="fill:#f2cc8f;fill-opacity:1"
       d="m 467.54402,987.40054 c -33.22513,-1.7129 -71.0115,-8.0512 -107.2373,-17.9881 l -13.2373,-3.631 0.56633,-4.0967 c 1.65627,-11.9809 3.58212,-21.9442 5.62421,-29.0967 l 2.28406,-8 139.27342,-0.2535 139.27342,-0.2535 1.06816,2.7535 c 1.71784,4.4283 5.74079,23.1293 6.6683,30.9983 l 0.85395,7.2448 -8.06863,2.445 c -51.14512,15.4986 -111.86976,22.7236 -167.06862,19.8779 z m -185,-47.181 c -34.03305,-16.2855 -68.67403,-38.45685 -100,-64.00324 -15.16981,-12.37101 -51.45761,-48.20347 -63.4241,-62.62826 -41.758863,-50.33746 -72.330963,-105.61138 -91.538343,-165.5 -48.49657,-151.21236 -20.7424503,-317.03209 74.230943,-443.5 15.10005,-20.10745 24.76287,-31.12525 45.68365,-52.08972 36.70222,-36.77889 70.66833,-62.190023 115.38564,-86.323703 13.23077,-7.14057 34.33762,-17.24451 34.88333,-16.69879 0.15629,0.15628 1.60271,4.97047 3.21427,10.69818 16.69257,59.327683 57.53694,111.123883 131.28427,166.486283 7.85419,5.89617 14.35381,10.99198 14.4436,11.32403 0.0898,0.33205 -5.9238,5.10372 -13.36354,10.60372 -91.14989,67.38468 -133.62569,132.02302 -141.28295,215 -4.17559,45.24825 3.6846,90.70689 22.52801,130.28858 22.15775,46.54368 62.39962,90.61428 122.95522,134.65357 4.4,3.19991 8.36337,6.14535 8.80748,6.54542 0.44411,0.40006 -6.08089,5.92562 -14.5,12.27901 -81.55761,61.54651 -122.2837,117.52843 -136.02791,186.98342 -1.17001,5.9125 -2.38655,10.7313 -2.70343,10.7084 -0.31688,-0.023 -5.07614,-2.195 -10.57614,-4.8269 z m 413.5,3.3844 c 0,-0.2662 -1.16527,-6.0037 -2.5895,-12.75 -7.76632,-36.78742 -25.51651,-73.28761 -51.43439,-105.7659 -10.89596,-13.65397 -38.9976,-41.71747 -55.47611,-55.40083 -7.15,-5.93718 -19.88837,-15.98997 -28.30748,-22.33954 -8.41911,-6.34957 -14.94411,-11.85944 -14.5,-12.24415 0.44411,-0.38472 6.43248,-4.89796 13.30748,-10.02943 88.48026,-66.04124 130.33033,-127.53674 140.18148,-205.98605 1.70359,-13.56647 1.67626,-52.51498 -0.0456,-65 -3.87718,-28.11281 -11.45793,-53.2674 -23.16277,-76.85906 -22.22809,-44.80181 -56.83058,-83.01993 -115.29336,-127.34044 -8.70115,-6.59632 -15.67615,-12.12278 -15.5,-12.28102 0.17614,-0.15823 5.72026,-4.31026 12.32026,-9.22673 59.0358,-43.97688 96.47075,-84.97732 118.5326,-129.822243 6.24729,-12.69883 16.9276,-41.46028 16.95598,-45.6615 0.006,-0.93004 0.48569,-1.98409 1.06535,-2.34235 1.47217,-0.90984 34.50809,15.6902 51.94607,26.10211 37.6656,22.48946 68.63597,47.004203 100.52187,79.568493 17.3963,17.76649 27.7371,29.75677 41.7096,48.36274 128.691,171.36682 130.2982,407.99542 3.9505,581.66243 -24.8954,34.21913 -59.0742,69.81683 -92.19437,96.02169 -27.16101,21.48993 -62.74346,43.82638 -90.77891,56.98548 -10.46818,4.9134 -11.2087,5.2006 -11.2087,4.3463 z m -320.91553,-61.2659 c 4.28017,-7.14127 15.24754,-21.79094 23.20793,-31 l 7.99578,-9.25 h 88.75018 88.75018 l 8.85573,10.36451 c 8.6543,10.12876 17.78062,22.37304 22.27525,29.88549 l 2.2436,3.75 H 495.04402 372.8809 Z m 74.91553,-78.667 c 0,-1.45899 43.00897,-32.97514 45,-32.97514 1.99103,0 45,31.51615 45,32.97514 0,0.22935 -20.25,0.417 -45,0.417 -24.75,0 -45,-0.18765 -45,-0.417 z m 28.83525,-113.36421 c -8.06561,-5.89533 -16.39061,-12.1576 -18.5,-13.91616 l -3.83525,-3.19736 h 38.5 38.5 l -3.83525,3.19736 c -8.21046,6.84489 -33.24352,24.63495 -34.66475,24.63495 -0.825,0 -8.09914,-4.82345 -16.16475,-10.71879 z m -76.5905,-65.54866 c -8.50931,-9.35045 -22.24475,-26.68973 -22.24475,-28.08122 0,-0.3239 51.80175,-0.58891 115.11501,-0.58891 h 115.11501 l -1.75387,2.75 c -4.26903,6.6937 -13.6693,18.27975 -21.82398,26.89857 l -8.84783,9.35143 -83.15217,-0.0799 -83.15217,-0.0799 z m -46.1988,-76.18522 c -3.12129,-9.74402 -6.32257,-23.28172 -7.5044,-31.73491 l -0.6641,-4.75 h 147.14917 147.14918 l -0.646,4.25 c -1.6875,11.10205 -4.01792,21.16888 -7.17634,31 l -3.45363,10.75 H 495.04089 359.13792 Z m -8.62321,-82.19429 c 0.85394,-9.4235 3.00069,-21.22055 5.73956,-31.54062 l 2.0568,-7.75 h 139.7809 139.7809 l 2.0568,7.75 c 2.73887,10.32007 4.88562,22.11712 5.73956,31.54062 l 0.6986,7.70938 H 495.04402 346.76816 Z m 25.57726,-78.13755 c 0,-2.60527 16.56773,-25.06843 27.95505,-37.90251 l 5.54495,-6.24945 88.5,-0.01 88.5,-0.01 2.5,2.88623 c 15.17249,17.51649 28.60624,35.33615 30.64581,40.65117 0.49982,1.30338 -14.12011,1.48149 -121.53882,1.48149 -67.15885,0 -122.10699,-0.38112 -122.10699,-0.84693 z m 77,-82.57045 c 0,-0.48379 23.43905,-18.27003 36.22998,-27.49237 l 8.72998,-6.29437 6.77002,4.79951 c 11.00144,7.79933 38.27002,28.41147 38.27002,28.92806 0,0.2621 -20.25,0.47655 -45,0.47655 -24.75,0 -45,-0.18782 -45,-0.41738 z m 39.5,-105.47868 c -2.75,-2.07898 -12.0875,-9.02408 -20.75,-15.43355 -8.6625,-6.40947 -15.75,-11.88237 -15.75,-12.16199 0,-0.27962 19.19362,-0.5084 42.6525,-0.5084 h 42.6525 l -8.4025,6.33485 c -12.29657,9.27069 -34.79496,25.67442 -35.12119,25.6071 -0.15472,-0.0319 -2.53131,-1.75903 -5.28131,-3.83801 z m -86.60854,-72.56044 c -3.35858,-3.55108 -8.56982,-9.51358 -11.58053,-13.25 -5.95837,-7.39459 -21.31093,-30.037633 -21.31093,-31.430863 0,-0.47892 55.60249,-0.86264 125,-0.86264 68.75,0 125,0.24106 125,0.5357 0,0.29464 -2.74052,4.92656 -6.09005,10.29316 -6.74115,10.800633 -18.73163,26.221313 -27.42984,35.276893 l -5.66164,5.89425 h -85.91025 -85.91025 z m -49.367,-84.790053 c -1.22237,-3.68825 -2.51399,-9.51225 -2.51888,-11.35778 -0.006,-2.35053 4.10949,-3.79732 26.49442,-9.31355 68.58554,-16.9012681 142.25239,-18.4626161 212.5,-4.50388 22.14927,4.40123 48.04066,11.36415 48.70618,13.09845 0.27982,0.72922 -0.1226,3.91278 -0.89427,7.07458 l -1.40304,5.74873 -141.2345,0.25345 c -112.4872,0.20186 -141.31905,-0.002 -141.64991,-1 z"
       id="path845"
       inkscape:export-filename="C:\Users\ayush\Dropbox (Partners HealthCare)\Microglia APOE\Website\docs\images\favicon.png"
       inkscape:export-xdpi="900"
       inkscape:export-ydpi="900" />
  </g>
</svg>
