<svg width="1980" height="1980" xmlns="http://www.w3.org/2000/svg" xmlns:xlink="http://www.w3.org/1999/xlink" overflow="hidden"><defs><clipPath id="clip0"><rect x="466" y="256" width="1980" height="1980"/></clipPath></defs><g clip-path="url(#clip0)" transform="translate(-466 -256)"><path d="M466 1246C466 699.238 909.238 256 1456 256 2002.76 256 2446 699.238 2446 1246 2446 1792.76 2002.76 2236 1456 2236 909.238 2236 466 1792.76 466 1246Z" fill="#227C9D" fill-rule="evenodd"/><path d="M1223.56 1279.5 1252.55 1279.5 1252.55 1318.13C1252.55 1339.47 1269.85 1356.75 1291.21 1356.75L1387.85 1356.75C1409.21 1356.75 1426.51 1339.47 1426.51 1318.13L1426.51 1279.5 1455.5 1279.5C1498.19 1279.5 1532.81 1244.91 1532.81 1202.25L1532.81 661.5C1532.81 618.844 1498.19 584.25 1455.5 584.25L1455.5 545.625C1455.5 524.285 1438.2 507 1416.84 507L1262.22 507C1240.86 507 1223.56 524.285 1223.56 545.625L1223.56 584.25C1180.87 584.25 1146.25 618.844 1146.25 661.5L1146.25 1202.25C1146.25 1244.91 1180.87 1279.5 1223.56 1279.5ZM1958.03 1588.5 1954.91 1588.5C2028.68 1506.4 2074 1398.27 2074 1279.5 2074 1023.9 1865.93 816 1610.12 816L1610.12 970.5C1780.65 970.5 1919.38 1109.12 1919.38 1279.5 1919.38 1449.88 1780.65 1588.5 1610.12 1588.5L952.969 1588.5C888.92 1588.5 837 1640.38 837 1704.38 837 1725.72 854.299 1743 875.656 1743L2035.34 1743C2056.7 1743 2074 1725.72 2074 1704.38 2074 1640.38 2022.08 1588.5 1958.03 1588.5ZM1088.27 1511.25 1590.8 1511.25C1601.48 1511.25 1610.12 1502.61 1610.12 1491.94L1610.12 1453.31C1610.12 1442.64 1601.48 1434 1590.8 1434L1088.27 1434C1077.59 1434 1068.94 1442.64 1068.94 1453.31L1068.94 1491.94C1068.94 1502.61 1077.59 1511.25 1088.27 1511.25Z" fill="#FFFFFF" fill-rule="evenodd"/></g></svg>